# xmcd
#
# Track frame offsets: 
#        150
#        17035
#        38693
#        54852
#        64660
#
# Disc length: 1085 seconds
#
# Revision: 0
# Processed by: cddbd v1.5.2PL0 Copyright (c) Steve Scherf et al.
# Submitted via: ExactAudioCopy v1.0b1
#
DISCID=33043b05
DTITLE=No Blues - Black Cadillac
DYEAR=2007
DGENRE=Blues, Ethnic
TTITLE0=Black Cadillac 
TTITLE1=High Acres 
TTITLE2=A Place Forgotten By Time
TTITLE3=Rock My Boat 
TTITLE4=Farewell Shalabiye
EXTD=
EXTT0=
EXTT1=
EXTT2=
EXTT3=
EXTT4=
PLAYORDER=
